<svg width="24" height="24" viewBox="0 0 24 24" fill="none" xmlns="http://www.w3.org/2000/svg">
<path d="M2.66667 24C1.93334 24 1.30534 23.7387 0.782669 23.216C0.260002 22.6933 -0.000886625 22.0658 2.26373e-06 21.3333V4.66668C2.26373e-06 4.33334 0.0555578 4.03334 0.166669 3.76668C0.27778 3.50001 0.422225 3.24445 0.600002 3.00001L2.46667 0.733343C2.64445 0.488898 2.86667 0.305343 3.13334 0.182676C3.4 0.0600097 3.68889 -0.000879297 4 9.59231e-06H20C20.3111 9.59231e-06 20.6 0.0608986 20.8667 0.182676C21.1333 0.304454 21.3556 0.48801 21.5333 0.733343L23.4 3.00001C23.5778 3.24445 23.7222 3.50001 23.8333 3.76668C23.9444 4.03334 24 4.33334 24 4.66668V21.3333C24 22.0667 23.7387 22.6947 23.216 23.2173C22.6933 23.74 22.0658 24.0009 21.3333 24H2.66667ZM3.2 4.00001H20.8L19.6667 2.66668H4.33334L3.2 4.00001ZM2.66667 6.66668V21.3333H21.3333V6.66668H2.66667ZM12 20L17.3333 14.6667L15.4667 12.8L13.3333 14.9333V9.33334H10.6667V14.9333L8.53334 12.8L6.66667 14.6667L12 20Z" fill="black"/>
</svg>
