<svg width="32" height="32" viewBox="0 0 32 32" fill="none" xmlns="http://www.w3.org/2000/svg">
<path d="M26.6 28C23.8222 28 21.0724 27.4 18.3507 26.2C15.6289 25 13.1564 23.2889 10.9333 21.0667C8.71111 18.8444 7 16.3778 5.8 13.6667C4.6 10.9556 4 8.2 4 5.4V4H11.8667L13.1 10.7L9.3 14.5333C9.78889 15.4 10.3333 16.2222 10.9333 17C11.5333 17.7778 12.1778 18.5 12.8667 19.1667C13.5111 19.8111 14.2169 20.428 14.984 21.0173C15.7511 21.6067 16.5787 22.1564 17.4667 22.6667L21.3333 18.8L28 20.1667V28H26.6ZM8.03333 12L10.2333 9.8L9.66667 6.66667H6.7C6.81111 7.66667 6.97778 8.60578 7.2 9.484C7.42222 10.3622 7.7 11.2009 8.03333 12ZM19.9667 23.9333C20.8556 24.3111 21.7502 24.6111 22.6507 24.8333C23.5511 25.0556 24.4453 25.2 25.3333 25.2667V22.3333L22.2 21.7L19.9667 23.9333Z" fill="black"/>
</svg>
