<svg width="32" height="32" viewBox="0 0 32 32" fill="none" xmlns="http://www.w3.org/2000/svg">
<path d="M0 16.375C0 18.1667 0.510417 19.8542 1.53125 21.4375C2.55208 23.0208 3.91667 24.3125 5.625 25.3125C5.54167 25.6042 5.44792 25.9792 5.34375 26.4375C5.23958 26.8958 5.09375 27.6146 4.90625 28.5938C4.71875 29.5729 4.64583 30.3854 4.6875 31.0312C4.72917 31.6771 4.9375 32 5.3125 32C6.5625 32 7.82292 31.6667 9.09375 31C10.3646 30.3333 11.375 29.6667 12.125 29C12.875 28.3333 13.2708 28 13.3125 28C15.6042 28 17.8333 27.5625 20 26.6875C19.75 26.6042 19.2812 26.3542 18.5938 25.9375C17.9062 25.5208 17.4792 25.3125 17.3125 25.3125H13.3125C12.5625 25.3125 11.7708 25.7292 10.9375 26.5625C9.77083 27.6042 8.66667 28.3542 7.625 28.8125L8 24L6.9375 23.0625C4.10417 21.2292 2.6875 19 2.6875 16.375C2.6875 15.7083 2.8125 14.9583 3.0625 14.125C2.89583 13.875 2.78125 13.4896 2.71875 12.9688C2.65625 12.4479 2.625 11.9792 2.625 11.5625V10.125L2.6875 9.3125C0.895833 11.2292 0 13.5833 0 16.375ZM18.6875 0C14.9792 0 11.8229 1.08333 9.21875 3.25C6.61458 5.41667 5.3125 8.02083 5.3125 11.0625C5.3125 14.0625 6.60417 16.5208 9.1875 18.4375C11.7708 20.3542 14.9375 21.3125 18.6875 21.3125C18.7292 21.3125 19.1562 21.7604 19.9688 22.6562C20.7812 23.5521 21.8542 24.4479 23.1875 25.3438C24.5208 26.2396 25.8125 26.6875 27.0625 26.6875C27.3542 26.6875 27.5312 26.4583 27.5938 26C27.6562 25.5417 27.625 24.9896 27.5 24.3438C27.375 23.6979 27.2292 23.0417 27.0625 22.375C26.8958 21.7083 26.75 21.1458 26.625 20.6875L26.375 20C28.0833 18.9583 29.4479 17.6562 30.4688 16.0938C31.4896 14.5312 32 12.8542 32 11.0625C32 8.02083 30.6979 5.41667 28.0938 3.25C25.4896 1.08333 22.3542 0 18.6875 0ZM25.0625 17.75L23.3125 18.8125L24 20.8125C24.0833 21.0208 24.1875 21.375 24.3125 21.875C24.4375 22.375 24.5625 22.7708 24.6875 23.0625C23.7708 22.4375 22.6875 21.5 21.4375 20.25C20.4792 19.2083 19.6042 18.6875 18.8125 18.6875C15.8958 18.6875 13.3854 18.0104 11.2812 16.6562C9.17708 15.3021 8.125 13.4375 8.125 11.0625C8.08333 8.72917 9.09375 6.75 11.1562 5.125C13.2188 3.5 15.7292 2.6875 18.6875 2.6875C21.6458 2.6875 24.1562 3.5 26.2188 5.125C28.2812 6.75 29.3125 8.72917 29.3125 11.0625C29.3125 13.6875 27.8958 15.9167 25.0625 17.75Z" fill="black"/>
</svg>
