<svg width="27" height="15" viewBox="0 0 27 15" fill="none" xmlns="http://www.w3.org/2000/svg">
<rect width="27" height="15" fill="white"/>
<rect x="-302" y="-793" width="390" height="844" rx="10" fill="#A0C49D"/>
<rect x="-302" y="-723" width="390" height="772" rx="30" fill="white" fill-opacity="0.937551"/>
<rect x="-302" y="-32" width="390" height="83" fill="white"/>
<rect x="-299.5" y="-17.5" width="373" height="50" rx="19.5" fill="white" stroke="black"/>
<path d="M0.79834 7.66659C0.79834 3.61325 3.94378 0.333252 7.83082 0.333252H21.2565C24.0822 0.333252 26.371 2.71992 26.371 5.66659C26.371 8.61325 24.0822 10.9999 21.2565 10.9999H10.3881C9.5403 10.9999 8.72723 10.6487 8.12776 10.0236C7.52828 9.39849 7.1915 8.55064 7.1915 7.66659C7.1915 6.78253 7.52828 5.93468 8.12776 5.30956C8.72723 4.68444 9.5403 4.33325 10.3881 4.33325H19.9778V6.99992H10.273C9.56976 6.99992 9.56976 8.33325 10.273 8.33325H21.2565C22.663 8.33325 23.8137 7.13325 23.8137 5.66659C23.8137 4.19992 22.663 2.99992 21.2565 2.99992H7.83082C5.36306 2.99992 3.3556 5.09325 3.3556 7.66659C3.3556 10.2399 5.36306 12.3333 7.83082 12.3333H19.9778V14.9999H7.83082C3.94378 14.9999 0.79834 11.7199 0.79834 7.66659Z" fill="black"/>
</svg>
