<svg width="32" height="32" viewBox="0 0 32 32" fill="none" xmlns="http://www.w3.org/2000/svg">
<path d="M21.3334 14.6667C23.5467 14.6667 25.32 12.8801 25.32 10.6667C25.32 8.45341 23.5467 6.66675 21.3334 6.66675C19.12 6.66675 17.3334 8.45341 17.3334 10.6667C17.3334 12.8801 19.12 14.6667 21.3334 14.6667ZM10.6667 14.6667C12.88 14.6667 14.6534 12.8801 14.6534 10.6667C14.6534 8.45341 12.88 6.66675 10.6667 6.66675C8.45337 6.66675 6.66671 8.45341 6.66671 10.6667C6.66671 12.8801 8.45337 14.6667 10.6667 14.6667ZM10.6667 17.3334C7.56004 17.3334 1.33337 18.8934 1.33337 22.0001V24.0001C1.33337 24.7334 1.93337 25.3334 2.66671 25.3334H18.6667C19.4 25.3334 20 24.7334 20 24.0001V22.0001C20 18.8934 13.7734 17.3334 10.6667 17.3334ZM21.3334 17.3334C20.9467 17.3334 20.5067 17.3601 20.04 17.4001C20.0667 17.4134 20.08 17.4401 20.0934 17.4534C21.6134 18.5601 22.6667 20.0401 22.6667 22.0001V24.0001C22.6667 24.4667 22.5734 24.9201 22.4267 25.3334H29.3334C30.0667 25.3334 30.6667 24.7334 30.6667 24.0001V22.0001C30.6667 18.8934 24.44 17.3334 21.3334 17.3334Z" fill="black"/>
</svg>
