<svg width="19" height="26" viewBox="0 0 19 26" fill="none" xmlns="http://www.w3.org/2000/svg">
<path d="M9.93834 0.666748C10.9557 0.666748 11.9314 1.08818 12.6507 1.83832C13.3701 2.58847 13.7742 3.60588 13.7742 4.66675V12.6667C13.7742 13.7276 13.3701 14.745 12.6507 15.4952C11.9314 16.2453 10.9557 16.6667 9.93834 16.6667C8.921 16.6667 7.94532 16.2453 7.22595 15.4952C6.50658 14.745 6.10245 13.7276 6.10245 12.6667V4.66675C6.10245 3.60588 6.50658 2.58847 7.22595 1.83832C7.94532 1.08818 8.921 0.666748 9.93834 0.666748ZM18.8888 12.6667C18.8888 17.3734 15.5515 21.2534 11.217 21.9067V26.0001H8.65971V21.9067C4.32515 21.2534 0.987915 17.3734 0.987915 12.6667H3.54518C3.54518 14.4349 4.21874 16.1306 5.4177 17.3808C6.61665 18.631 8.24277 19.3334 9.93834 19.3334C11.6339 19.3334 13.26 18.631 14.459 17.3808C15.6579 16.1306 16.3315 14.4349 16.3315 12.6667H18.8888Z" fill="black"/>
</svg>
