<svg width="25" height="21" viewBox="0 0 25 21" fill="none" xmlns="http://www.w3.org/2000/svg">
<path d="M16.0504 15.4039C15.6277 14.7338 15.0813 14.2461 14.138 14.5435L12.2772 15.0748C10.7874 15.6062 10.0452 15.0748 9.29772 14.2739L5.94713 8.41329C5.5296 7.74318 5.7461 7.11271 6.68942 6.81532L9.29256 6.01435C10.2359 5.71299 10.0864 5.08649 9.6637 4.41637L7.44201 1.22042C7.01932 0.550304 6.15332 0.38773 5.21001 0.68512C3.31822 1.28387 1.75633 2.22362 0.746001 3.6154C-0.491137 5.31647 0.127432 7.6837 0.37486 8.67896C0.622287 9.67423 1.48828 11.4189 2.60686 13.2072C3.72544 14.9995 4.71 16.4071 5.5863 17.2041C6.46261 18.0011 8.56574 20.182 11.1689 20.6697C13.303 21.0662 15.6071 20.7332 17.4938 20.1344C18.4371 19.837 18.4422 19.2066 18.0195 18.5325L16.0504 15.4039ZM24.3702 6.00245L22.3392 4.44016L19.2928 6.7836L16.2463 4.44016L14.2153 6.00245L17.2618 8.34589L14.2153 10.6933L16.2463 12.2556L19.2928 9.91214L22.3392 12.2556L24.3702 10.6933L21.3237 8.34985L24.3702 6.00245Z" fill="#F24E1E"/>
</svg>
