<svg width="24" height="24" viewBox="0 0 24 24" fill="none" xmlns="http://www.w3.org/2000/svg">
<path fill-rule="evenodd" clip-rule="evenodd" d="M0.543506 4.448C0.543142 4.448 0.542836 4.44772 0.542798 4.44736C0.210845 1.33569 3.28316 -0.949239 5.99751 0.392002L21.2695 7.936C24.195 9.38 24.195 13.7213 21.2695 15.1653L5.99751 22.7107C3.28298 24.052 0.211701 21.7667 0.542866 18.6547C0.89185 15.3734 3.66003 12.884 6.95982 12.884H11.5365C11.8757 12.884 12.2009 12.7435 12.4407 12.4935C12.6805 12.2434 12.8152 11.9043 12.8152 11.5507C12.8152 11.197 12.6805 10.8579 12.4407 10.6079C12.2009 10.3578 11.8757 10.2173 11.5365 10.2173H4.05883C2.4093 10.2173 1.02551 8.97294 0.851017 7.33267L0.544213 4.44864C0.544174 4.44828 0.543869 4.448 0.543506 4.448Z" fill="black"/>
</svg>
