<svg width="30" height="9" viewBox="0 0 30 9" fill="none" xmlns="http://www.w3.org/2000/svg">
<path d="M21.9049 4.15485C21.9182 4.94586 22.1569 5.715 22.5909 6.36501C23.0249 7.01502 23.6347 7.51672 24.3431 7.80665C25.0515 8.09657 25.8268 8.16172 26.5708 7.99384C27.3148 7.82596 27.9943 7.43259 28.5232 6.86349C29.052 6.29439 29.4066 5.5751 29.5421 4.7966C29.6776 4.0181 29.5878 3.21534 29.2842 2.48984C28.9806 1.76434 28.4767 1.14868 27.8364 0.72072C27.196 0.292759 26.4479 0.0717171 25.6866 0.0855457C24.6662 0.105274 23.6949 0.544791 22.9859 1.30767C22.277 2.07055 21.8882 3.09449 21.9049 4.15485ZM27.6784 4.04998C27.6851 4.44548 27.5787 4.83415 27.3728 5.16684C27.1668 5.49953 26.8706 5.76129 26.5215 5.91903C26.1723 6.07677 25.7861 6.1234 25.4114 6.05303C25.0368 5.98265 24.6907 5.79842 24.4168 5.52365C24.143 5.24888 23.9537 4.8959 23.8729 4.50934C23.7921 4.12279 23.8235 3.72003 23.963 3.35198C24.1025 2.98394 24.3439 2.66715 24.6567 2.44167C24.9695 2.21619 25.3396 2.09215 25.7203 2.08524C26.2305 2.07657 26.7232 2.27855 27.0903 2.64689C27.4574 3.01522 27.6689 3.51982 27.6784 4.04998ZM8.43324 4.39957C8.41993 3.60856 8.18117 2.83942 7.74717 2.18941C7.31317 1.5394 6.70341 1.0377 5.99499 0.747776C5.28658 0.457848 4.51133 0.392705 3.76729 0.560585C3.02325 0.728465 2.34383 1.12183 1.81494 1.69093C1.28605 2.26003 0.931457 2.97932 0.795994 3.75782C0.660531 4.53632 0.750284 5.33908 1.0539 6.06458C1.35752 6.79008 1.86137 7.40574 2.50174 7.8337C3.1421 8.26166 3.89022 8.4827 4.65149 8.46888C5.67194 8.44915 6.6432 8.00963 7.35217 7.24675C8.06114 6.48387 8.44993 5.45993 8.43324 4.39957ZM2.65968 4.50445C2.65303 4.10894 2.75939 3.72027 2.96533 3.38758C3.17127 3.05489 3.46752 2.79313 3.81663 2.63539C4.16575 2.47765 4.55204 2.43102 4.92665 2.5014C5.30127 2.57177 5.64739 2.756 5.92125 3.03077C6.1951 3.30554 6.38439 3.65852 6.46517 4.04508C6.54596 4.43163 6.51461 4.8344 6.3751 5.20244C6.23558 5.57048 5.99417 5.88727 5.68138 6.11275C5.36859 6.33823 4.99848 6.46227 4.61784 6.46918C4.1076 6.47785 3.61487 6.27587 3.24777 5.90753C2.88067 5.5392 2.66917 5.0346 2.65968 4.50445ZM19.0181 4.20729C19.0048 3.41629 18.766 2.64715 18.332 1.99713C17.898 1.34712 17.2883 0.845428 16.5798 0.5555C15.8714 0.265572 15.0962 0.200429 14.3521 0.368309C13.6081 0.536189 12.9287 0.929552 12.3998 1.49866C11.8709 2.06776 11.5163 2.78704 11.3808 3.56554C11.2454 4.34405 11.3351 5.14681 11.6388 5.87231C11.9424 6.59781 12.4462 7.21346 13.0866 7.64143C13.727 8.06939 14.4751 8.29043 15.2363 8.2766C16.2568 8.25687 17.228 7.81735 17.937 7.05447C18.646 6.29159 19.0348 5.26765 19.0181 4.20729ZM13.2445 4.31217C13.2379 3.91667 13.3442 3.528 13.5502 3.19531C13.7561 2.86262 14.0524 2.60085 14.4015 2.44311C14.7506 2.28537 15.1369 2.23874 15.5115 2.30912C15.8861 2.3795 16.2322 2.56372 16.5061 2.83849C16.78 3.11327 16.9692 3.46625 17.05 3.8528C17.1308 4.23936 17.0995 4.64212 16.9599 5.01016C16.8204 5.37821 16.579 5.695 16.2662 5.92047C15.9534 6.14595 15.5833 6.26999 15.2027 6.27691C14.6924 6.28558 14.1997 6.08359 13.8326 5.71526C13.4655 5.34693 13.254 4.84233 13.2445 4.31217Z" fill="white"/>
</svg>
