<svg width="30" height="30" viewBox="0 0 30 30" fill="none" xmlns="http://www.w3.org/2000/svg">
<path d="M28.3334 15.0001C28.3359 16.8354 27.9582 18.6513 27.2241 20.3334M15.0001 28.3334C16.7514 28.3359 18.4859 27.9921 20.1039 27.3219C21.7219 26.6517 23.1915 25.6682 24.4281 24.4281M1.66676 15.0001C1.66431 13.2488 2.00808 11.5143 2.6783 9.89625C3.34852 8.27825 4.33196 6.8087 5.57209 5.57209M15.0001 1.66676C13.1648 1.66426 11.3489 2.04197 9.66676 2.77609M9.66676 27.2241C6.58423 25.8767 4.1235 23.416 2.77609 20.3334M20.1094 3.00009C23.192 4.3475 25.6527 6.80823 27.0001 9.89076" stroke="black" stroke-width="2.66667" stroke-linecap="round" stroke-linejoin="round"/>
<path fill-rule="evenodd" clip-rule="evenodd" d="M9.06006 15.1267C9.05961 13.5799 9.65006 12.0913 10.7107 10.9653C11.7713 9.8393 13.222 9.16098 14.7661 9.06903C16.3102 8.97708 17.8311 9.47843 19.0179 10.4706C20.2047 11.4627 20.9676 12.8708 21.1507 14.4067C18.1227 14.4747 15.8947 15.1494 14.2934 16.1187C15.7401 16.6227 17.1867 17.4761 18.3027 18.8641C18.4689 19.0708 18.5462 19.335 18.5176 19.5987C18.489 19.8624 18.3568 20.1039 18.1501 20.2701C17.9434 20.4363 17.6791 20.5136 17.4154 20.4849C17.1518 20.4563 16.9103 20.3241 16.7441 20.1174C15.6907 18.8094 14.2014 18.0854 12.6787 17.7321C11.6479 17.4972 10.5886 17.4119 9.5334 17.4787C9.22011 16.7342 9.05916 15.9345 9.06006 15.1267ZM15.1267 6.64673C14.0131 6.64673 12.9104 6.86607 11.8816 7.29223C10.8527 7.71839 9.9179 8.34302 9.13046 9.13046C8.34302 9.9179 7.71839 10.8527 7.29223 11.8816C6.86607 12.9104 6.64673 14.0131 6.64673 15.1267C6.64673 16.2403 6.86607 17.343 7.29223 18.3719C7.71839 19.4007 8.34302 20.3356 9.13046 21.123C9.9179 21.9104 10.8527 22.5351 11.8816 22.9612C12.9104 23.3874 14.0131 23.6067 15.1267 23.6067C17.3758 23.6067 19.5327 22.7133 21.123 21.123C22.7133 19.5327 23.6067 17.3758 23.6067 15.1267C23.6067 12.8777 22.7133 10.7208 21.123 9.13046C19.5327 7.54015 17.3758 6.64673 15.1267 6.64673ZM12.5814 10.7627C12.2827 10.7627 11.8521 10.8467 11.4747 11.1187C11.0614 11.4174 10.7627 11.9081 10.7627 12.5814C10.7627 13.2547 11.0601 13.7454 11.4747 14.0441C11.8521 14.3161 12.2827 14.4001 12.5814 14.4001C12.8801 14.4001 13.3107 14.3161 13.6881 14.0441C14.1027 13.7454 14.4001 13.2547 14.4001 12.5814C14.4001 11.9081 14.1027 11.4174 13.6881 11.1187C13.3641 10.89 12.9779 10.7658 12.5814 10.7627Z" fill="black"/>
</svg>
